<svg width="16" height="16" viewBox="0 0 16 16" fill="none" xmlns="http://www.w3.org/2000/svg">
<path d="M7.9978 2C9.0978 2 9.9978 2.9 9.9978 4C9.9978 5.1 9.0978 6 7.9978 6C6.8978 6 5.9978 5.1 5.9978 4C5.9978 2.9 6.8978 2 7.9978 2ZM7.9978 12C10.6978 12 13.7978 13.29 13.9978 14H1.9978C2.2278 13.28 5.3078 12 7.9978 12ZM7.9978 0C5.7878 0 3.9978 1.79 3.9978 4C3.9978 6.21 5.7878 8 7.9978 8C10.2078 8 11.9978 6.21 11.9978 4C11.9978 1.79 10.2078 0 7.9978 0ZM7.9978 10C5.3278 10 -0.00219727 11.34 -0.00219727 14V16H15.9978V14C15.9978 11.34 10.6678 10 7.9978 10Z" fill="white"/>
</svg>
